General 
Complete name : Sathon Ki Kasoor - Love Disguise ( Punjabi Music Video ) 1080p [HD] [GodTorrent][GodModeDownload].mp4 
Format : MPEG-4 
Format profile : Base Media / Version 2 
Codec ID : mp42 
File size : 130 MiB 
Duration : 5mn 13s 
Overall bit rate mode : Variable 
Overall bit rate : 3 475 Kbps 

Video 
ID : 1 
Format : AVC 
Format/Info : Advanced Video Codec 
Format profile : Main@L4.1 
Format settings, CABAC : Yes 
Format settings, ReFrames : 3 frames 
Codec ID : avc1 
Codec ID/Info : Advanced Video Coding 
Duration : 5mn 13s 
Source duration : 5mn 13s 
Bit rate : 3 279 Kbps 
Width : 1 440 pixels 
Height : 1 080 pixels 
Display aspect ratio : 4:3 
Original display aspect ratio : 16:9 
Frame rate mode : Variable 
Frame rate : 23.976 fps 
Minimum frame rate : 23.976 fps 
Maximum frame rate : 24.000 fps 
Standard : NTSC 
Color space : YUV 
Chroma subsampling : 4:2:0 
Bit depth : 8 bits 
Scan type : Progressive 
Bits/(Pixel*Frame) : 0.088 
Stream size : 122 MiB (94%) 
Source stream size : 122 MiB (94%) 
Language : English 

Audio 
ID : 2 
Format : AAC 
Format/Info : Advanced Audio Codec 
Format profile : LC 
Codec ID : 40 
Duration : 5mn 13s 
Source duration : 5mn 13s 
Bit rate mode : Variable 
Bit rate : 192 Kbps 
Maximum bit rate : 294 Kbps 
Channel(s) : 2 channels 
Channel positions : Front: L R 
Sampling rate : 48.0 KHz 
Compression mode : Lossy 
Stream size : 7.07 MiB (5%) 
Source stream size : 7.07 MiB (5%) 
Language : English 

Screens -

[IMG]http://i1076.photobucket.com/albums/w448/aaditya2525/1.jpg[/IMG]

[IMG]http://i1076.photobucket.com/albums/w448/aaditya2525/2.jpg[/IMG]

[IMG]http://i1076.photobucket.com/albums/w448/aaditya2525/4.jpg[/IMG]

[IMG]http://i1076.photobucket.com/albums/w448/aaditya2525/3.jpg[/IMG]


For Extra Information - 
http://www.godmodedownload.eu/detailpage.aspx?id=970


For anything else just check out - 
http://www.godmodedownload.eu/
